<svg viewBox="0 0 96 96" xmlns="http://www.w3.org/2000/svg" xmlns:xlink="http://www.w3.org/1999/xlink" id="Icons_Beetle" overflow="hidden"><path d="M77.46 56.77C76.68 52.89 74.99 50.11 72.46 48.49 70.364 47.2152 67.8797 46.7361 65.46 47.14L65.48 46C65.5697 43.7858 64.7745 41.627 63.27 40L31.7 40C30.1966 41.6283 29.3985 43.7853 29.48 46L29.56 47.14C27.1403 46.7379 24.6566 47.2169 22.56 48.49 20 50.11 18.31 52.89 17.56 56.77 17.3455 57.8523 18.048 58.9038 19.13 59.12 19.2629 59.1348 19.3971 59.1348 19.53 59.12 20.4955 59.1395 21.3371 58.4662 21.53 57.52 22.07 54.78 23.15 52.87 24.74 51.85 26.0249 51.0993 27.5372 50.8366 29 51.11 29.2643 51.1598 29.5357 51.1598 29.8 51.11L30.48 62C30.5729 63.2951 30.8214 64.5743 31.22 65.81 30.1809 65.913 29.1857 66.2815 28.33 66.88 26.45 68.24 25.5 70.63 25.5 74L25.5 81 21.5 81C20.3954 80.9953 19.4962 81.8868 19.4914 82.9914 19.4905 83.2155 19.5272 83.4381 19.6 83.65 19.8896 84.4968 20.7064 85.0481 21.6 85L27.5 85C28.6046 85 29.5 84.1046 29.5 83L29.5 74C29.5 72.06 29.91 70.69 30.66 70.14 31.3443 69.7747 32.1436 69.6887 32.89 69.9 33.0266 69.9443 33.1673 69.9744 33.31 69.99 36.5886 74.4708 41.8386 77.0808 47.39 76.99L47.58 76.99C53.131 77.0791 58.3803 74.4694 61.66 69.99 61.81 69.9794 61.9579 69.9491 62.1 69.9 62.8428 69.6849 63.6404 69.7712 64.32 70.14 65.07 70.69 65.48 72.06 65.48 74L65.48 83C65.48 84.1046 66.3754 85 67.48 85L73.4 85C74.2936 85.0481 75.1105 84.4968 75.4 83.65 75.7591 82.6054 75.2034 81.4675 74.1589 81.1084 73.9405 81.0334 73.7108 80.9967 73.48 81L69.48 81 69.48 74C69.48 70.63 68.48 68.24 66.65 66.88 65.7923 66.2711 64.7878 65.9018 63.74 65.81 64.1481 64.5768 64.3968 63.2964 64.48 62L65.16 51.14C65.4277 51.1897 65.7023 51.1897 65.97 51.14 67.4698 50.8562 69.0216 51.1338 70.33 51.92 71.91 52.92 72.99 54.85 73.54 57.59 73.7329 58.5362 74.5745 59.2095 75.54 59.19 75.6696 59.2048 75.8004 59.2048 75.93 59.19 77.0105 58.9605 77.7003 57.8986 77.4708 56.8181 77.4674 56.802 77.4638 56.786 77.46 56.77ZM49.46 72.89C48.1276 72.96 46.7924 72.96 45.46 72.89L45.46 44 49.46 44Z"/><path d="M74.43 16.71 68.43 16.71C67.3254 16.71 66.43 17.6054 66.43 18.71L66.43 27.71C66.43 29.66 66.01 31.03 65.25 31.58 64.8974 31.8133 64.4828 31.9352 64.06 31.93 62.9452 28.3491 59.9381 25.6808 56.25 25 55.843 23.2147 54.9011 21.596 53.55 20.36 53.2343 18.4947 53.6382 16.5791 54.68 15 55.95 13.41 58.37 12.73 61.87 13 62.9746 13.0801 63.9349 12.2496 64.015 11.145 64.0951 10.0404 63.2646 9.08008 62.16 9 57.26 8.65 53.68 9.84 51.54 12.54 50.3017 14.1884 49.6031 16.1793 49.54 18.24 48.8844 18.0854 48.2135 18.0049 47.54 18 47.0335 18.001 46.5281 18.0479 46.03 18.14 45.9466 16.1137 45.2491 14.1607 44.03 12.54 41.82 9.84 38.24 8.65 33.34 9 32.2354 9.08008 31.4049 10.0404 31.485 11.145 31.5651 12.2496 32.5254 13.0801 33.63 13 37.13 12.74 39.55 13.42 40.82 15 41.7911 16.4302 42.2104 18.1641 42 19.88 40.3421 21.1528 39.1789 22.9631 38.71 25 35.0237 25.68 32.0192 28.3494 30.91 31.93 30.4711 31.9391 30.0394 31.8172 29.67 31.58 28.92 31.03 28.5 29.66 28.5 27.71L28.5 18.71C28.5 17.6054 27.6046 16.71 26.5 16.71L20.5 16.71C19.3954 16.71 18.5 17.6054 18.5 18.71 18.5 19.8146 19.3954 20.71 20.5 20.71L24.5 20.71 24.5 27.71C24.5 31.07 25.45 33.47 27.33 34.82 28.2574 35.4986 29.3546 35.907 30.5 36L64.5 36C65.6188 35.8977 66.6878 35.4895 67.59 34.82 69.47 33.47 70.43 31.07 70.43 27.71L70.43 20.71 74.43 20.71C75.5346 20.71 76.43 19.8146 76.43 18.71 76.43 17.6054 75.5346 16.71 74.43 16.71Z"/></svg>