<svg viewBox="0 0 96 96" xmlns="http://www.w3.org/2000/svg" xmlns:xlink="http://www.w3.org/1999/xlink" id="Icons_Building" overflow="hidden"><g><path d="M65 29 59 29 59 23 65 23 65 29ZM65 45 59 45 59 39 65 39 65 45ZM65 61 59 61 59 55 65 55 65 61ZM65 77 59 77 59 71 65 71 65 77ZM51 29 45 29 45 23 51 23 51 29ZM51 45 45 45 45 39 51 39 51 45ZM51 61 45 61 45 55 51 55 51 61ZM51 83 45 83 45 71 51 71 51 83ZM37 29 31 29 31 23 37 23 37 29ZM37 45 31 45 31 39 37 39 37 45ZM37 61 31 61 31 55 37 55 37 61ZM37 77 31 77 31 71 37 71 37 77ZM72 83 72 16 69 16 69 10 66 10 66 6 30 6 30 10 27 10 27 16 24 16 24 83 20 83 20 90 76 90 76 83 72 83Z"/></g></svg>